<?xml version="1.0" standalone="no"?><svg xmlns:xlink="http://www.w3.org/1999/xlink" xmlns="http://www.w3.org/2000/svg" viewBox="0 0 1000 583.3374360902369" preserveAspectRatio="xMaxYMax slice"><g transform="scale(1.4919116012538027)"><rect x="0" y="0" width="670.2857142857142" height="391" fill="#ffffff"/><rect x="55.857142857142854" y="55.857142857142854" width="55.857142857142854" height="55.857142857142854" fill="#ffffff"/><rect x="111.71428571428571" y="111.71428571428571" width="55.857142857142854" height="55.857142857142854" fill="#ffffff"/><rect x="139.64" y="111.71" width="27.93" height="27.93" fill="#4766e7"/><rect x="279.2857142857143" y="111.71428571428571" width="55.857142857142854" height="55.857142857142854" fill="#ffffff"/><rect x="279.29" y="111.71" width="27.93" height="27.93" fill="#f3e0e4"/><rect x="307.21" y="111.71" width="27.93" height="27.93" fill="#fefdfd"/><rect x="279.29" y="139.64" width="27.93" height="27.93" fill="#a3102e"/><rect x="307.21" y="139.64" width="27.93" height="27.93" fill="#869bef"/><rect x="391" y="111.71428571428571" width="55.857142857142854" height="55.857142857142854" fill="#ffffff"/><rect x="418.93" y="111.71" width="27.93" height="27.93" fill="#be576c"/><rect x="391" y="139.64" width="27.93" height="27.93" fill="#d694a2"/><rect x="418.93" y="139.64" width="27.93" height="27.93" fill="#1b42e1"/><rect x="502.71428571428567" y="111.71428571428571" width="55.857142857142854" height="55.857142857142854" fill="#ffffff"/><rect x="502.71" y="139.64" width="27.93" height="27.93" fill="#1c43e2"/><rect x="614.4285714285714" y="111.71428571428571" width="55.857142857142854" height="55.857142857142854" fill="#ffffff"/><rect x="614.43" y="139.64" width="27.93" height="27.93" fill="#4060e6"/><rect x="642.36" y="139.64" width="27.93" height="27.93" fill="#8b9ef0"/><rect x="0" y="167.57142857142856" width="55.857142857142854" height="55.857142857142854" fill="#ffffff"/><rect x="0" y="167.57" width="27.93" height="27.93" fill="#d798a5"/><rect x="27.93" y="167.57" width="27.93" height="27.93" fill="#aa213d"/><rect x="111.71428571428571" y="167.57142857142856" width="55.857142857142854" height="55.857142857142854" fill="#ffffff"/><rect x="139.64" y="167.57" width="27.93" height="27.93" fill="#b64058"/><rect x="139.64" y="195.5" width="27.93" height="27.93" fill="#2b4fe4"/><rect x="279.2857142857143" y="167.57142857142856" width="55.857142857142854" height="55.857142857142854" fill="#ffffff"/><rect x="279.29" y="167.57" width="27.93" height="27.93" fill="#a41331"/><rect x="307.21" y="167.57" width="27.93" height="27.93" fill="#d0d8f9"/><rect x="279.29" y="195.5" width="27.93" height="27.93" fill="#a71a37"/><rect x="307.21" y="195.5" width="27.93" height="27.93" fill="#4060e6"/><rect x="558.5714285714286" y="167.57142857142856" width="55.857142857142854" height="55.857142857142854" fill="#ffffff"/><rect x="558.57" y="167.57" width="27.93" height="27.93" fill="#1940e1"/><rect x="558.57" y="195.5" width="27.93" height="27.93" fill="#c2ccf7"/><rect x="586.5" y="195.5" width="27.93" height="27.93" fill="#395be5"/><rect x="0" y="223.42857142857142" width="55.857142857142854" height="55.857142857142854" fill="#ffffff"/><rect x="0" y="251.36" width="27.93" height="27.93" fill="#fafbfe"/><rect x="27.93" y="251.36" width="27.93" height="27.93" fill="#6c85ec"/><rect x="55.857142857142854" y="223.42857142857142" width="55.857142857142854" height="55.857142857142854" fill="#ffffff"/><rect x="83.79" y="223.43" width="27.93" height="27.93" fill="#faf2f3"/><rect x="55.86" y="251.36" width="27.93" height="27.93" fill="#dce2fa"/><rect x="83.79" y="251.36" width="27.93" height="27.93" fill="#6c85ec"/><rect x="223.42857142857142" y="223.42857142857142" width="55.857142857142854" height="55.857142857142854" fill="#ffffff"/><rect x="223.43" y="223.43" width="27.93" height="27.93" fill="#b5c1f5"/><rect x="391" y="223.42857142857142" width="55.857142857142854" height="55.857142857142854" fill="#ffffff"/><rect x="391" y="223.43" width="27.93" height="27.93" fill="#eac9d0"/><rect x="418.93" y="251.36" width="27.93" height="27.93" fill="#4665e7"/><rect x="446.85714285714283" y="223.42857142857142" width="55.857142857142854" height="55.857142857142854" fill="#ffffff"/><rect x="446.86" y="223.43" width="27.93" height="27.93" fill="#d89aa6"/><rect x="474.79" y="223.43" width="27.93" height="27.93" fill="#dca4b0"/><rect x="474.79" y="251.36" width="27.93" height="27.93" fill="#d5929f"/><rect x="502.71428571428567" y="223.42857142857142" width="55.857142857142854" height="55.857142857142854" fill="#ffffff"/><rect x="502.71" y="223.43" width="27.93" height="27.93" fill="#f7ebed"/><rect x="530.64" y="223.43" width="27.93" height="27.93" fill="#a9203c"/><rect x="502.71" y="251.36" width="27.93" height="27.93" fill="#e3e8fb"/><rect x="530.64" y="251.36" width="27.93" height="27.93" fill="#acbaf4"/><rect x="614.4285714285714" y="223.42857142857142" width="55.857142857142854" height="55.857142857142854" fill="#ffffff"/><rect x="642.36" y="223.43" width="27.93" height="27.93" fill="#d48e9c"/><rect x="642.36" y="251.36" width="27.93" height="27.93" fill="#a61835"/><rect x="0" y="279.2857142857143" width="55.857142857142854" height="55.857142857142854" fill="#ffffff"/><rect x="0" y="279.29" width="27.93" height="27.93" fill="#cb7788"/><rect x="27.93" y="279.29" width="27.93" height="27.93" fill="#dba1ad"/><rect x="0" y="307.21" width="27.93" height="27.93" fill="#cad3f8"/><rect x="27.93" y="307.21" width="27.93" height="27.93" fill="#899df0"/><rect x="55.857142857142854" y="279.2857142857143" width="55.857142857142854" height="55.857142857142854" fill="#ffffff"/><rect x="55.86" y="279.29" width="27.93" height="27.93" fill="#e7c0c8"/><rect x="83.79" y="279.29" width="27.93" height="27.93" fill="#94a6f1"/><rect x="55.86" y="307.21" width="27.93" height="27.93" fill="#d693a1"/><rect x="83.79" y="307.21" width="27.93" height="27.93" fill="#b1344e"/><rect x="167.57142857142856" y="279.2857142857143" width="55.857142857142854" height="55.857142857142854" fill="#ffffff"/><rect x="167.57" y="279.29" width="27.93" height="27.93" fill="#a41431"/><rect x="195.5" y="279.29" width="27.93" height="27.93" fill="#c46679"/><rect x="167.57" y="307.21" width="27.93" height="27.93" fill="#cb7989"/><rect x="223.42857142857142" y="279.2857142857143" width="55.857142857142854" height="55.857142857142854" fill="#ffffff"/><rect x="223.43" y="279.29" width="27.93" height="27.93" fill="#738bed"/><rect x="251.36" y="279.29" width="27.93" height="27.93" fill="#faf2f3"/><rect x="223.43" y="307.21" width="27.93" height="27.93" fill="#3b5ce5"/><rect x="251.36" y="307.21" width="27.93" height="27.93" fill="#a51533"/><rect x="279.2857142857143" y="279.2857142857143" width="55.857142857142854" height="55.857142857142854" fill="#ffffff"/><rect x="279.29" y="279.29" width="27.93" height="27.93" fill="#e0aeb8"/><rect x="307.21" y="279.29" width="27.93" height="27.93" fill="#6882eb"/><rect x="279.29" y="307.21" width="27.93" height="27.93" fill="#637deb"/><rect x="307.21" y="307.21" width="27.93" height="27.93" fill="#fcf6f7"/><rect x="335.1428571428571" y="279.2857142857143" width="55.857142857142854" height="55.857142857142854" fill="#ffffff"/><rect x="335.14" y="279.29" width="27.93" height="27.93" fill="#2e52e4"/><rect x="363.07" y="279.29" width="27.93" height="27.93" fill="#edd0d6"/><rect x="335.14" y="307.21" width="27.93" height="27.93" fill="#dca4af"/><rect x="363.07" y="307.21" width="27.93" height="27.93" fill="#a10a28"/><rect x="391" y="279.2857142857143" width="55.857142857142854" height="55.857142857142854" fill="#ffffff"/><rect x="391" y="279.29" width="27.93" height="27.93" fill="#fffefe"/><rect x="418.93" y="279.29" width="27.93" height="27.93" fill="#cb798a"/><rect x="391" y="307.21" width="27.93" height="27.93" fill="#cfd7f9"/><rect x="418.93" y="307.21" width="27.93" height="27.93" fill="#d2daf9"/><rect x="446.85714285714283" y="279.2857142857143" width="55.857142857142854" height="55.857142857142854" fill="#ffffff"/><rect x="446.86" y="279.29" width="27.93" height="27.93" fill="#f8f9fe"/><rect x="474.79" y="279.29" width="27.93" height="27.93" fill="#cad3f8"/><rect x="446.86" y="307.21" width="27.93" height="27.93" fill="#7d93ee"/><rect x="474.79" y="307.21" width="27.93" height="27.93" fill="#8ea1f0"/><rect x="502.71428571428567" y="279.2857142857143" width="55.857142857142854" height="55.857142857142854" fill="#ffffff"/><rect x="502.71" y="279.29" width="27.93" height="27.93" fill="#b1354e"/><rect x="530.64" y="279.29" width="27.93" height="27.93" fill="#6d86ec"/><rect x="530.64" y="307.21" width="27.93" height="27.93" fill="#e9edfc"/><rect x="558.5714285714286" y="279.2857142857143" width="55.857142857142854" height="55.857142857142854" fill="#ffffff"/><rect x="558.57" y="279.29" width="27.93" height="27.93" fill="#c46679"/><rect x="586.5" y="279.29" width="27.93" height="27.93" fill="#b9485f"/><rect x="558.57" y="307.21" width="27.93" height="27.93" fill="#c36377"/><rect x="586.5" y="307.21" width="27.93" height="27.93" fill="#b1344e"/><rect x="614.4285714285714" y="279.2857142857143" width="55.857142857142854" height="55.857142857142854" fill="#ffffff"/><rect x="642.36" y="279.29" width="27.93" height="27.93" fill="#91a3f1"/><rect x="614.43" y="307.21" width="27.93" height="27.93" fill="#4e6ce8"/><rect x="0" y="335.1428571428571" width="55.857142857142854" height="55.857142857142854" fill="#ffffff"/><rect x="0" y="335.14" width="27.93" height="27.93" fill="#fefbfc"/><rect x="27.93" y="335.14" width="27.93" height="27.93" fill="#1d43e2"/><rect x="0" y="363.07" width="27.93" height="27.93" fill="#d99ca9"/><rect x="27.93" y="363.07" width="27.93" height="27.93" fill="#99aaf2"/><rect x="55.857142857142854" y="335.1428571428571" width="55.857142857142854" height="55.857142857142854" fill="#ffffff"/><rect x="55.86" y="335.14" width="27.93" height="27.93" fill="#7a91ee"/><rect x="83.79" y="335.14" width="27.93" height="27.93" fill="#eff2fd"/><rect x="55.86" y="363.07" width="27.93" height="27.93" fill="#c15e72"/><rect x="83.79" y="363.07" width="27.93" height="27.93" fill="#ac2641"/><rect x="111.71428571428571" y="335.1428571428571" width="55.857142857142854" height="55.857142857142854" fill="#ffffff"/><rect x="111.71" y="335.14" width="27.93" height="27.93" fill="#f1dbdf"/><rect x="139.64" y="335.14" width="27.93" height="27.93" fill="#758ced"/><rect x="111.71" y="363.07" width="27.93" height="27.93" fill="#c3cdf7"/><rect x="139.64" y="363.07" width="27.93" height="27.93" fill="#2449e3"/><rect x="167.57142857142856" y="335.1428571428571" width="55.857142857142854" height="55.857142857142854" fill="#ffffff"/><rect x="167.57" y="335.14" width="27.93" height="27.93" fill="#657feb"/><rect x="195.5" y="335.14" width="27.93" height="27.93" fill="#b7445b"/><rect x="167.57" y="363.07" width="27.93" height="27.93" fill="#b7445b"/><rect x="195.5" y="363.07" width="27.93" height="27.93" fill="#d28998"/><rect x="223.42857142857142" y="335.1428571428571" width="55.857142857142854" height="55.857142857142854" fill="#ffffff"/><rect x="223.43" y="335.14" width="27.93" height="27.93" fill="#f0d8dd"/><rect x="251.36" y="335.14" width="27.93" height="27.93" fill="#f3dfe3"/><rect x="223.43" y="363.07" width="27.93" height="27.93" fill="#f1dce0"/><rect x="251.36" y="363.07" width="27.93" height="27.93" fill="#8fa2f0"/><rect x="279.2857142857143" y="335.1428571428571" width="55.857142857142854" height="55.857142857142854" fill="#ffffff"/><rect x="279.29" y="335.14" width="27.93" height="27.93" fill="#4867e7"/><rect x="307.21" y="335.14" width="27.93" height="27.93" fill="#bc5066"/><rect x="279.29" y="363.07" width="27.93" height="27.93" fill="#b7445b"/><rect x="307.21" y="363.07" width="27.93" height="27.93" fill="#3a5be5"/><rect x="335.1428571428571" y="335.1428571428571" width="55.857142857142854" height="55.857142857142854" fill="#ffffff"/><rect x="335.14" y="335.14" width="27.93" height="27.93" fill="#d89aa6"/><rect x="363.07" y="335.14" width="27.93" height="27.93" fill="#a20e2d"/><rect x="335.14" y="363.07" width="27.93" height="27.93" fill="#8fa2f0"/><rect x="363.07" y="363.07" width="27.93" height="27.93" fill="#efd6dc"/><rect x="391" y="335.1428571428571" width="55.857142857142854" height="55.857142857142854" fill="#ffffff"/><rect x="391" y="335.14" width="27.93" height="27.93" fill="#889cf0"/><rect x="418.93" y="335.14" width="27.93" height="27.93" fill="#efd4da"/><rect x="391" y="363.07" width="27.93" height="27.93" fill="#1c43e2"/><rect x="418.93" y="363.07" width="27.93" height="27.93" fill="#f8edf0"/><rect x="446.85714285714283" y="335.1428571428571" width="55.857142857142854" height="55.857142857142854" fill="#ffffff"/><rect x="446.86" y="335.14" width="27.93" height="27.93" fill="#8ea1f0"/><rect x="474.79" y="335.14" width="27.93" height="27.93" fill="#4b69e8"/><rect x="446.86" y="363.07" width="27.93" height="27.93" fill="#4161e6"/><rect x="474.79" y="363.07" width="27.93" height="27.93" fill="#c76d7f"/><rect x="502.71428571428567" y="335.1428571428571" width="55.857142857142854" height="55.857142857142854" fill="#ffffff"/><rect x="502.71" y="335.14" width="27.93" height="27.93" fill="#738bed"/><rect x="530.64" y="335.14" width="27.93" height="27.93" fill="#5874e9"/><rect x="502.71" y="363.07" width="27.93" height="27.93" fill="#bc5167"/><rect x="530.64" y="363.07" width="27.93" height="27.93" fill="#526fe9"/><rect x="558.5714285714286" y="335.1428571428571" width="55.857142857142854" height="55.857142857142854" fill="#ffffff"/><rect x="558.57" y="335.14" width="27.93" height="27.93" fill="#a5b4f3"/><rect x="586.5" y="335.14" width="27.93" height="27.93" fill="#2e51e4"/><rect x="558.57" y="363.07" width="27.93" height="27.93" fill="#1f45e2"/><rect x="586.5" y="363.07" width="27.93" height="27.93" fill="#b8465d"/><rect x="614.4285714285714" y="335.1428571428571" width="55.857142857142854" height="55.857142857142854" fill="#ffffff"/><rect x="614.43" y="335.14" width="27.93" height="27.93" fill="#bf5a6e"/><rect x="642.36" y="335.14" width="27.93" height="27.93" fill="#eceffd"/><rect x="614.43" y="363.07" width="27.93" height="27.93" fill="#d3daf9"/><rect x="642.36" y="363.07" width="27.93" height="27.93" fill="#ac2843"/></g></svg>